# xmcd
#
# Track frame offsets:
#       183
#       6708
#       15408
#       23958
#       40833
#       67083
#       78670
#       104933
#       122208
#       168483
#       194383
#       216108
#       246133
#       278808
#       330858
#
# Disc length: 4651 seconds
#
# Revision: 2
# Processed by: cddbd v1.5.2PL0 Copyright (c) Steve Scherf et al.
# Submitted via: FreeDbEdit v0.1
#
DISCID=da12290f
DTITLE=Stevie Ray Vaughan - Mega Rare Trax, Volume 1 [CD3]
DYEAR=1900
DGENRE=
TTITLE0=Ain't Gone 'N' Give Up on Love
TTITLE1=Scuttle Buttin'
TTITLE2=Jeff's Boogie
TTITLE3=Dirty Pool
TTITLE4=Leave My Little Girl Alone
TTITLE5=The House Is Rockin'
TTITLE6=Tightrope
TTITLE7=Let Me Love You Baby
TTITLE8=Riviera Paradise
TTITLE9=Wall of Denial
TTITLE10=Superstition
TTITLE11=Cold Shot
TTITLE12=Texas Flood
TTITLE13=Voodoo Chile (Slight Return)
TTITLE14=Crossfire
EXTD=
EXTT0=
EXTT1=
EXTT2=
EXTT3=
EXTT4=
EXTT5=
EXTT6=
EXTT7=
EXTT8=
EXTT9=
EXTT10=
EXTT11=
EXTT12=
EXTT13=
EXTT14=
PLAYORDER=
